<?xml version="1.0" encoding="utf-8"?>
<!-- Generator: Adobe Illustrator 23.1.1, SVG Export Plug-In . SVG Version: 6.00 Build 0)  -->
<svg version="1.1" id="Capa_1" xmlns="http://www.w3.org/2000/svg" xmlns:xlink="http://www.w3.org/1999/xlink" x="0px" y="0px"
	 viewBox="0 0 1250 1250" style="enable-background:new 0 0 1250 1250;" xml:space="preserve">
<style type="text/css">
	.st0{fill:#33EE11;}
</style>
<g>
	<g>
		<path d="M625.29,962.45c-88.36,0-171.43-34.41-233.9-96.89s-96.89-145.55-96.89-233.9c0-88.36,34.41-171.43,96.89-233.9
			s145.55-96.89,233.9-96.89s171.43,34.41,233.9,96.89s96.89,145.55,96.89,233.9c0,88.36-34.41,171.43-96.89,233.9
			S713.64,962.45,625.29,962.45z M625.29,311.49c-85.52,0-165.93,33.3-226.4,93.78c-60.47,60.47-93.78,140.88-93.78,226.4
			s33.3,165.93,93.78,226.4c60.47,60.47,140.88,93.78,226.4,93.78s165.93-33.3,226.4-93.78c60.47-60.47,93.78-140.88,93.78-226.4
			s-33.3-165.93-93.78-226.4C791.21,344.79,710.81,311.49,625.29,311.49z"/>
	</g>
	<path class="st0" d="M434.66,811.26c-7.19,0-13.03-5.85-13.03-13.03c0-7.19,5.85-13.03,13.03-13.03h85.74
		c2.27,0,4.12-1.84,4.12-4.12v-70.01c0-2.04-1.5-3.78-3.52-4.07c-13.87-2.04-27.18-6.56-39.56-13.46
		c-27.03-15.05-46.58-39.72-55.05-69.47c-8.47-29.76-4.85-61.03,10.2-88.05c20.48-36.79,59.11-59.64,100.8-59.64
		c10.82,0,21.61,1.53,32.07,4.55c0.38,0.11,0.76,0.16,1.14,0.16c1.49,0,2.91-0.82,3.64-2.19c23.2-43.76,68.28-70.95,117.65-70.95
		c73.37,0,133.07,59.69,133.07,133.07c0,66.95-50.05,123.71-116.43,132.03c-2.06,0.26-3.6,2.01-3.6,4.08v103.96
		c0,2.27,1.84,4.12,4.12,4.12h102.89c7.19,0,13.03,5.85,13.03,13.03c0,7.19-5.85,13.03-13.03,13.03H434.66z M633.2,660.88
		c-1.26,0-2.48,0.58-3.28,1.63c-15.18,20.04-36.08,34.29-60.44,41.23c-5.01,1.42-10.19,2.53-15.38,3.28
		c-2.02,0.29-3.53,2.03-3.53,4.07v69.99c0,2.27,1.84,4.12,4.12,4.12h120.03c2.27,0,4.12-1.84,4.12-4.12V677.12
		c0-2.08-1.54-3.83-3.6-4.08c-13.98-1.75-27.53-5.71-40.27-11.76C634.4,661,633.8,660.88,633.2,660.88z M503.25,579.42
		c3.48,0,6.75,1.36,9.21,3.82l34.27,34.27c0.32,0.32,0.61,0.65,0.89,0.99l0.26,0.35c0.22,0.29,0.37,0.47,0.5,0.67
		c0.06,0.08,0.1,0.17,0.15,0.25l0.28,0.46c0.08,0.12,0.15,0.25,0.22,0.38c0.06,0.1,0.11,0.22,0.16,0.33l0.2,0.42
		c0.07,0.14,0.14,0.28,0.19,0.42c0.03,0.08,0.27,0.76,0.27,0.76c0.05,0.14,0.11,0.28,0.15,0.43c0.03,0.09,0.21,0.82,0.21,0.82
		c0.04,0.14,0.07,0.27,0.1,0.41c0.03,0.13,0.04,0.27,0.06,0.4l0.09,0.58c0.01,0.09,0.03,0.18,0.04,0.27
		c0.04,0.43,0.07,0.86,0.07,1.29v49.53c0,1.24,0.55,2.4,1.51,3.19c0.74,0.61,1.66,0.93,2.6,0.93c0.27,0,0.55-0.03,0.82-0.08
		c2.54-0.52,4.77-1.05,6.83-1.64c17.85-5.09,33.4-15.32,44.99-29.58c1.42-1.75,1.17-4.33-0.57-5.77
		c-28.51-23.58-45.92-58.37-47.78-95.43l-0.02-0.42c-0.05-1-0.09-1.99-0.11-2.99c-0.03-1.14-0.04-2.27-0.05-3.41
		c0-0.02,0.02-2.09,0.02-2.09c0-0.47,0.01-0.94,0.02-1.41c0.03-1.13,0.07-2.26,0.13-3.38c0.38-7.54,1.41-15.08,3.07-22.43l0.36-1.6
		c0.53-2.19-0.81-4.4-3-4.95c-7.18-1.81-14.56-2.73-21.92-2.73c-32.33,0-62.28,17.71-78.14,46.21
		c-11.66,20.94-14.47,45.18-7.91,68.24c6.56,23.06,21.71,42.18,42.66,53.84c7.99,4.45,16.55,7.64,25.45,9.49
		c0.28,0.06,0.56,0.09,0.84,0.09c0.94,0,1.86-0.32,2.6-0.92c0.96-0.78,1.52-1.95,1.52-3.19v-42.38c0-1.09-0.43-2.14-1.21-2.91
		l-29.27-29.27c-2.46-2.46-3.82-5.73-3.82-9.21s1.36-6.75,3.82-9.21C496.49,580.77,499.76,579.42,503.25,579.42z M743.3,545.11
		c4.37,0,8.43,2.17,10.86,5.81c3.98,5.98,2.36,14.09-3.62,18.07l-43.81,29.2c-1.14,0.76-1.83,2.05-1.83,3.42v40.81
		c0,1.21,0.53,2.36,1.46,3.14c0.75,0.63,1.69,0.97,2.66,0.97c0.23,0,0.46-0.02,0.68-0.06c24.63-4.15,47.2-16.97,63.54-36.09
		c16.53-19.34,25.63-43.99,25.63-69.4c0-59-48-107-107-107c-44.16,0-84.38,27.79-100.07,69.16c-0.44,1.16-0.85,2.33-1.25,3.51
		l-0.17,0.49c-0.12,0.36-0.24,0.71-0.36,1.07c-0.25,0.78-0.49,1.56-0.72,2.35l-0.06,0.2c-0.26,0.9-0.52,1.79-0.76,2.69
		c-0.16,0.59-0.31,1.19-0.46,1.79c-0.29,1.18-0.57,2.36-0.82,3.55c-0.09,0.4-0.17,0.8-0.25,1.21c-0.28,1.4-0.53,2.8-0.75,4.22
		l-0.13,0.79c-0.23,1.55-0.43,3.13-0.6,4.71l-0.05,0.47c-0.17,1.68-0.3,3.4-0.39,5.11l-0.02,0.24c-0.09,1.81-0.14,3.64-0.14,5.43
		c0,1.64,0.04,3.29,0.13,5.1l0.03,0.7c2.65,49.53,40.09,91.46,89.01,99.7c0.23,0.04,0.46,0.06,0.68,0.06c0.97,0,1.91-0.34,2.66-0.97
		c0.93-0.78,1.46-1.93,1.46-3.14v-40.81c0-1.38-0.69-2.66-1.83-3.42L633.2,569c-5.98-3.99-7.6-12.09-3.61-18.07
		c2.42-3.64,6.48-5.81,10.86-5.81c2.57,0,5.06,0.76,7.21,2.19l24.79,16.52c0.69,0.46,1.48,0.69,2.28,0.69
		c0.67,0,1.33-0.16,1.94-0.49c1.34-0.72,2.17-2.11,2.17-3.63v-36.55c0-7.19,5.85-13.03,13.03-13.03s13.03,5.85,13.03,13.03v36.55
		c0,1.52,0.84,2.91,2.17,3.63c0.61,0.33,1.28,0.49,1.94,0.49c0.8,0,1.59-0.23,2.28-0.69l24.78-16.52
		C738.24,545.87,740.73,545.11,743.3,545.11z"/>
	<g>
		<path d="M281,735.15l-51.02,39.54c-1.13,0.87-2.28,1.64-3.66,2.01c-4.55,1.23-9.02-1.43-10.25-5.98c-1.14-4.24,0.55-7.65,3.49-9.8
			l42.97-31.46l-53.55-5.67c-2.93-0.35-6.24-2.52-7.3-6.44c-1.2-4.45,1.22-8.96,5.67-10.16c1.27-0.34,2.76-0.29,3.83-0.12
			l64.57,8.61c4.48,0.61,7.74,3.02,8.94,7.47l0.29,1.06C286.17,728.64,284.56,732.37,281,735.15z"/>
		<path d="M235.21,687.79l-0.22,0.01c-21.81,0.84-40.34-15.67-41.25-39.34c-0.91-23.67,16.07-41.34,37.88-42.18l0.22-0.01
			c21.81-0.84,40.33,15.67,41.25,39.34C274,669.28,257.01,686.95,235.21,687.79z M232.74,623.9l-0.22,0.01
			c-13.15,0.51-23.74,10.57-23.21,24.16c0.52,13.59,11.63,22.6,24.78,22.09l0.22-0.01c13.15-0.51,23.74-10.57,23.21-24.16
			C256.99,632.4,245.89,623.39,232.74,623.9z"/>
		<path d="M214.95,568.83l-2.77,15.99c-0.73,4.22-4.79,7.08-9,6.35c-4.22-0.73-7.08-4.79-6.35-9l8.41-48.63
			c0.73-4.22,4.79-7.08,9-6.35c4.22,0.73,7.08,4.79,6.35,9l-2.77,15.99l52.63,9.11c4.65,0.8,7.69,5.11,6.88,9.76
			c-0.8,4.65-5.11,7.69-9.76,6.88L214.95,568.83z"/>
		<path d="M211.63,481.71c-0.92-0.35-1.76-1.25-2.39-2.07l-6.71-8.96c-1.66-2.14-2.26-4.6-1.3-7.16c1.42-3.8,5.63-7.84,8-6.96
			c1.44,0.54,2.26,1.78,2.93,3.44l3.57,8.6c1.66,4.02,1.35,6.71,0.04,10.21C214.91,481.06,213.27,482.32,211.63,481.71z
			 M270.72,538.41l-47.19-46.27c-3.25-3.21-4.42-7.28-2.8-11.59l0.35-0.92c1.62-4.31,5.13-6.51,9.69-6.79l65.98-3.84
			c1.32-0.09,2.46-0.01,3.49,0.37c4.21,1.58,6.37,6.14,4.79,10.35c-1.39,3.7-4.47,5.35-8.29,5.56l-13.11,0.59l-11.86,31.63
			l9.92,9.46c2.58,2.49,3.43,5.85,2.2,9.14c-1.54,4.11-6.02,6.06-10.13,4.52C272.63,540.19,271.66,539.35,270.72,538.41z
			 M267.47,486.48l-27.46,1.07L260,506.4L267.47,486.48z"/>
		<path d="M274.5,395.21c-3.73-2.89-4.4-8.12-1.51-11.85l14.03-18.13c11.21-14.49,26.57-16.6,38.98-7.01l0.17,0.13
			c14.05,10.87,12.88,27.44,2.35,41.06l-7.85,10.15l12.06,9.33c3.73,2.89,4.4,8.12,1.51,11.85c-2.89,3.73-8.12,4.4-11.85,1.51
			L274.5,395.21z M316.97,389.79c5.17-6.68,4.2-13.67-1.01-17.7l-0.17-0.13c-5.99-4.63-12.42-2.95-17.58,3.73l-7.99,10.32
			l18.56,14.36L316.97,389.79z"/>
		<path d="M344.48,355.2l-0.14-0.17c-13.89-16.83-11.99-41.58,6.28-56.66c18.27-15.08,42.62-12.28,56.51,4.55l0.14,0.17
			c13.89,16.83,11.99,41.58-6.28,56.66C382.73,374.83,358.38,372.03,344.48,355.2z M393.8,314.5l-0.14-0.17
			c-8.38-10.15-22.8-12.46-33.29-3.81c-10.49,8.66-10.92,22.95-2.54,33.1l0.14,0.17c8.38,10.15,22.8,12.46,33.29,3.81
			C401.74,338.94,402.17,324.65,393.8,314.5z"/>
		<path d="M411.32,266.46c-2.09-4.23-0.4-9.22,3.83-11.31l23.9-11.8c8.75-4.32,16.75-5.21,23.51-2.93
			c5.73,1.94,10.47,6.33,13.67,12.82l0.1,0.2c5.34,10.82,3.24,20.17-3.42,27.74l16.84,7.59c2.4,1.14,4.16,2.23,5.32,4.59
			c2.09,4.23-0.09,8.73-3.73,10.53c-3.44,1.7-6.53,1.14-9.42-0.24l-23.98-11.4l-12.1,5.97l7.43,15.05c2.09,4.23,0.4,9.22-3.83,11.31
			c-4.23,2.09-9.22,0.4-11.31-3.83L411.32,266.46z M454.58,277.26c7.37-3.64,9.66-9.66,6.8-15.47l-0.1-0.2
			c-3.2-6.49-9.38-7.6-16.76-3.96l-15.04,7.43l9.76,19.77L454.58,277.26z"/>
		<path d="M528.6,219.27c-0.8-4.65,2.24-8.96,6.89-9.76c4.65-0.8,8.96,2.24,9.76,6.89l9.12,52.85l30.8-5.32
			c4.22-0.73,8.14,2.04,8.87,6.26c0.73,4.21-2.04,8.14-6.26,8.87l-39.12,6.75c-4.65,0.8-8.96-2.24-9.76-6.89L528.6,219.27z"/>
		<path d="M597.2,238.62l0.01-0.22c0.7-21.81,18.47-39.13,42.15-38.37c23.68,0.76,40.1,18.94,39.41,40.76l-0.01,0.22
			c-0.7,21.81-18.47,39.13-42.15,38.37S596.51,260.43,597.2,238.62z M661.1,240.66l0.01-0.22c0.42-13.15-8.88-24.42-22.47-24.86
			c-13.59-0.43-23.36,10.01-23.78,23.16l-0.01,0.22c-0.42,13.15,8.88,24.42,22.47,24.85C650.92,264.25,660.68,253.81,661.1,240.66z"
			/>
		<path d="M688.41,274.19c-1.48-1.74-2.16-4.4-1.51-6.95c1.08-4.25,5.33-6.68,9.58-5.59c2.13,0.54,3.42,1.67,4.3,2.68
			c4.58,5.58,10.09,9.7,17.32,11.55c6.7,1.71,11.41,0.08,12.52-4.28l0.05-0.21c1.06-4.15-0.95-6.92-12.57-13.28
			c-14.01-7.65-22.63-14.26-18.86-29.03l0.05-0.21c3.44-13.5,16.56-19.66,31.76-15.79c9.03,2.3,16.3,6.65,21.91,12.61
			c1.54,1.52,2.77,4.22,1.96,7.4c-1.08,4.25-5.32,6.68-9.58,5.59c-1.59-0.41-2.76-1.16-3.85-2.23c-4.61-4.57-9.25-7.68-14.35-8.98
			c-6.27-1.6-10.3,0.43-11.22,4.04l-0.05,0.21c-1.25,4.89,1.54,7.3,13.56,13.87c14.09,7.78,21.21,15.37,17.9,28.34l-0.05,0.21
			c-3.77,14.77-17.15,20.19-33.2,16.1C704.31,287.75,695.18,282.25,688.41,274.19z"/>
		<path d="M815.98,253.77c2.42-4.04,7.54-5.33,11.58-2.9l23.33,13.98c7.52,4.51,12.21,10.13,13.72,16.15
			c1.21,4.81,0.51,9.38-2.19,13.9l-0.11,0.19c-4.45,7.43-10.89,9.2-17.17,9.02c5.87,7.48,7.92,14.72,2.62,23.56l-0.11,0.19
			c-7.22,12.04-20.61,12.2-35.47,3.29l-24.08-14.43c-4.04-2.42-5.33-7.54-2.9-11.58L815.98,253.77z M819.79,318.45
			c6.4,3.83,11.61,3.89,14.54-1l0.11-0.19c2.65-4.42,0.99-9.12-6.44-13.58l-16.74-10.04l-8.68,14.49L819.79,318.45z M831.83,289.61
			c6.4,3.83,11.68,4.19,14.61-0.7l0.11-0.19c2.59-4.33,0.67-8.8-5.44-12.47l-14.3-8.57l-8.34,13.92L831.83,289.61z"/>
		<path d="M869.01,322l0.15-0.16c15.2-15.66,40.01-16.49,57.01,0.01c17,16.5,16.89,41.01,1.69,56.67l-0.15,0.16
			c-15.2,15.66-40.01,16.49-57.01-0.01C853.7,362.17,853.81,337.65,869.01,322z M914.88,366.54l0.15-0.16
			c9.17-9.44,9.88-24.03,0.13-33.51c-9.76-9.47-24.01-8.33-33.18,1.11l-0.15,0.16c-9.17,9.44-9.88,24.03-0.13,33.51
			C891.46,377.12,905.72,375.98,914.88,366.54z"/>
		<path d="M912.47,409.71c0.07-2.28,1.36-4.71,3.56-6.16c3.66-2.42,8.43-1.36,10.85,2.3c1.21,1.83,1.41,3.53,1.38,4.87
			c-0.37,7.21,0.94,13.96,5.04,20.19c3.8,5.77,8.39,7.73,12.14,5.26l0.18-0.12c3.57-2.36,3.95-5.76-0.37-18.28
			c-5.22-15.08-7.15-25.77,5.58-34.16l0.18-0.12c11.62-7.67,25.47-3.41,34.11,9.68c5.13,7.78,7.59,15.88,7.73,24.07
			c0.11,2.16-0.78,4.98-3.53,6.8c-3.66,2.42-8.43,1.36-10.85-2.3c-0.91-1.37-1.26-2.71-1.35-4.23c-0.33-6.48-1.68-11.9-4.58-16.29
			c-3.56-5.4-7.91-6.61-11.02-4.55l-0.18,0.12c-4.21,2.78-3.77,6.43,0.7,19.38c5.19,15.23,5.35,25.64-5.81,33l-0.18,0.12
			c-12.72,8.4-26.27,3.4-35.38-10.42C915.11,430.44,912.05,420.23,912.47,409.71z"/>
		<path d="M977.29,454.3l0.21-0.08c20.4-7.75,43.23,1.99,51.64,24.14c8.41,22.15-2.05,44.31-22.46,52.06l-0.21,0.08
			c-7.59,2.88-15.56,3.21-23.02,1.47l-1.4,4.05c-0.81,2.19-2.29,4.16-4.86,5.13c-4.1,1.56-8.73-0.44-10.29-4.54
			c-0.82-2.15-0.6-4.35,0.17-6.05l2.01-5.22c-6.19-4.57-11.22-10.99-14.25-18.99C946.42,484.22,956.89,462.06,977.29,454.3z
			 M983.37,494.7c4.1-1.56,8.73,0.44,10.29,4.54c0.82,2.15,0.65,3.86-0.17,6.05l-4.07,10.58c3.34,0.14,6.99-0.43,10.58-1.79
			l0.21-0.08c12.3-4.67,19.13-17.59,14.3-30.31c-4.83-12.71-18.23-17.71-30.53-13.04l-0.2,0.08c-12.3,4.67-19.13,17.59-14.3,30.31
			c1.32,3.49,3.15,6.43,5.53,8.69l3.51-9.9C979.33,497.65,980.81,495.68,983.37,494.7z"/>
		<path d="M1004.73,549.64l35.8-4.52c4.68-0.59,8.85,2.64,9.44,7.32c0.59,4.68-2.64,8.84-7.32,9.44l-35.36,4.46
			c-12.4,1.57-18.04,8.58-16.75,18.81c1.29,10.23,8.28,15.65,20.35,14.12l35.91-4.53c4.68-0.59,8.85,2.64,9.44,7.32
			c0.59,4.68-2.64,8.85-7.32,9.44l-35.25,4.45c-23.07,2.91-36.02-8.61-38.6-29.06C972.47,566.42,982.32,552.47,1004.73,549.64z"/>
		<path d="M988.54,634.38l59.68,4.92c4.7,0.39,8.11,4.41,7.72,9.11l-3.49,42.41c-0.34,4.15-4.01,7.26-8.16,6.92
			c-4.15-0.34-7.15-4-6.81-8.16l2.81-34.1l-15.52-1.28l-2.4,29.18c-0.34,4.15-4.01,7.26-8.16,6.92c-4.15-0.34-7.15-4-6.81-8.15
			l2.4-29.18l-16.07-1.32l-2.85,34.65c-0.34,4.15-4.01,7.26-8.16,6.92c-4.15-0.34-7.15-4-6.81-8.16l3.54-42.96
			C979.82,637.41,983.84,634,988.54,634.38z"/>
		<path d="M981.03,703.94c1.77-1.44,4.45-2.05,6.99-1.33c4.22,1.19,6.54,5.5,5.34,9.72c-0.6,2.11-1.75,3.38-2.79,4.23
			c-5.7,4.43-9.96,9.83-11.99,17.01c-1.88,6.65-0.38,11.4,3.95,12.63l0.21,0.06c4.12,1.17,6.94-0.77,13.6-12.22
			c8.01-13.81,14.84-22.24,29.51-18.1l0.21,0.06c13.4,3.79,19.22,17.06,14.95,32.15c-2.54,8.97-7.07,16.12-13.17,21.58
			c-1.56,1.5-4.29,2.66-7.45,1.77c-4.22-1.19-6.54-5.5-5.34-9.72c0.45-1.58,1.23-2.73,2.33-3.79c4.69-4.49,7.91-9.04,9.35-14.11
			c1.76-6.23-0.16-10.3-3.75-11.32l-0.21-0.06c-4.85-1.37-7.33,1.34-14.22,13.19c-8.14,13.88-15.91,20.8-28.79,17.16l-0.21-0.06
			c-14.67-4.15-19.74-17.66-15.23-33.6C967.07,719.48,972.8,710.51,981.03,703.94z"/>
	</g>
	<g>
		<path d="M296.45,847.83l0.11-0.08c11.3-8.4,26.89-6.76,35.97,5.45c4.43,5.96,5.84,11.18,5.85,16.29c-0.01,1.42-0.66,3.14-2.2,4.28
			c-2.39,1.77-5.7,1.24-7.47-1.15c-0.89-1.19-1.02-2.33-1.09-3.25c0-3.79-0.88-7.11-3.2-10.23c-4.98-6.7-14.13-7.39-20.95-2.32
			l-0.11,0.08c-6.82,5.07-8.99,14-3.92,20.82c2.74,3.69,5.7,5.29,9.54,6.31c1.07,0.26,2.15,0.87,2.91,1.89
			c1.65,2.22,1.22,5.44-0.99,7.09c-1.36,1.01-2.95,1.13-4.22,0.84c-5.78-1.25-10.78-4.06-15.51-10.43
			C282.47,871.72,285.04,856.32,296.45,847.83z"/>
		<path d="M327.44,889.16l0.1-0.1c10.01-9.9,26.02-10.11,36.77,0.76c10.75,10.87,10.36,26.68,0.35,36.58l-0.1,0.1
			c-10.01,9.9-26.02,10.11-36.77-0.76C317.04,914.87,317.43,899.06,327.44,889.16z M356.44,918.5l0.1-0.1
			c6.04-5.97,6.69-15.37,0.52-21.61c-6.17-6.24-15.38-5.69-21.42,0.28l-0.1,0.1c-6.04,5.97-6.69,15.37-0.52,21.61
			C341.2,925.01,350.4,924.47,356.44,918.5z"/>
		<path d="M384.45,917.49c1.82-2.44,5.19-2.92,7.63-1.1l0.91,0.68c2.1,1.57,2.58,3.52,2.63,5.94l0.31,34.68l15.29-20.45
			c1.78-2.38,5.15-2.87,7.53-1.09c2.38,1.78,2.87,5.15,1.09,7.53l-23.6,31.56c-1.82,2.44-5.19,2.92-7.63,1.1l-0.28-0.21
			c-2.1-1.57-2.58-3.52-2.63-5.94l-0.34-35.94l-15.89,21.25c-1.78,2.38-5.15,2.87-7.53,1.09c-2.38-1.78-2.87-5.15-1.09-7.53
			L384.45,917.49z"/>
		<path d="M408.33,982.7c-0.63-1.33-0.61-3.1,0.22-4.58c1.39-2.47,4.43-3.27,6.9-1.89c1.23,0.69,1.86,1.61,2.23,2.39
			c1.92,4.24,4.67,7.73,8.86,10.09c3.89,2.18,7.1,1.96,8.52-0.57l0.07-0.12c1.35-2.41,0.56-4.47-5.62-10.37
			c-7.45-7.1-11.72-12.66-6.9-21.24l0.07-0.12c4.4-7.83,13.6-9.48,22.42-4.53c5.24,2.94,9.05,6.86,11.55,11.51
			c0.7,1.21,1.02,3.09-0.02,4.94c-1.39,2.47-4.43,3.27-6.9,1.89c-0.93-0.52-1.53-1.18-2.02-2.03c-2.11-3.62-4.48-6.33-7.44-7.99
			c-3.64-2.04-6.49-1.45-7.67,0.65l-0.07,0.12c-1.59,2.84-0.26,4.8,6.13,10.91c7.48,7.2,10.65,13.12,6.42,20.64l-0.07,0.12
			c-4.81,8.58-14.06,9.72-23.37,4.49C415.97,993.8,411.2,988.85,408.33,982.7z"/>
		<path d="M457.07,991.19l8.71-21.59c1.14-2.82,4.27-4.15,7.09-3.02c2.82,1.14,4.15,4.27,3.01,7.09l-8.6,21.33
			c-3.02,7.48-0.84,12.86,5.33,15.35c6.17,2.49,11.42,0.26,14.36-7.03l8.74-21.66c1.14-2.82,4.27-4.15,7.09-3.01
			c2.82,1.14,4.15,4.27,3.01,7.09l-8.58,21.26c-5.61,13.91-16.17,17.59-28.51,12.61C456.39,1014.64,451.62,1004.7,457.07,991.19z"/>
		<path d="M514.77,988.35c0.77-2.94,3.71-4.66,6.65-3.88c2.94,0.77,4.66,3.71,3.88,6.65l-8.8,33.46l19.5,5.13
			c2.67,0.7,4.23,3.38,3.53,6.05s-3.38,4.23-6.05,3.53l-24.77-6.51c-2.94-0.77-4.66-3.71-3.88-6.65L514.77,988.35z"/>
		<path d="M559.58,1003.99l-10.34-1.66c-2.73-0.44-4.6-3.03-4.17-5.75c0.44-2.73,3.03-4.6,5.76-4.17l31.44,5.03
			c2.73,0.44,4.6,3.03,4.17,5.75c-0.44,2.73-3.03,4.6-5.76,4.17l-10.34-1.66l-5.45,34.03c-0.48,3-3.24,5-6.24,4.52
			c-3-0.48-5-3.24-4.52-6.24L559.58,1003.99z"/>
		<path d="M583.06,1040.67l18.96-38.2c1.32-2.63,3.58-4.16,6.55-4.03l0.64,0.03c2.97,0.13,5.02,1.85,6.1,4.59l15.54,39.71
			c0.32,0.79,0.5,1.51,0.47,2.22c-0.13,2.9-2.49,5.13-5.39,5c-2.54-0.11-4.18-1.67-5.07-3.98l-2.98-7.92l-21.78-0.96l-3.82,7.98
			c-1.01,2.08-2.91,3.27-5.17,3.17c-2.83-0.12-4.92-2.48-4.8-5.31C582.35,1042.2,582.67,1041.43,583.06,1040.67z M614.27,1028.3
			l-6.14-16.63l-7.58,16.03L614.27,1028.3z"/>
		<path d="M660.22,1003.86c-0.42-3.01,1.62-5.73,4.64-6.15l14.64-2.06c11.7-1.64,19.75,4.3,21.16,14.32l0.02,0.14
			c1.6,11.35-6.41,18.48-17.41,20.02l-8.2,1.15l1.37,9.74c0.42,3.01-1.62,5.73-4.64,6.15c-3.01,0.42-5.73-1.62-6.15-4.64
			L660.22,1003.86z M682.28,1020.48c5.4-0.76,8.1-4.43,7.5-8.63l-0.02-0.14c-0.68-4.84-4.41-6.96-9.8-6.2l-8.34,1.17l2.11,14.99
			L682.28,1020.48z"/>
		<path d="M708.38,1016.62l-0.04-0.14c-3.88-13.54,3.63-27.68,18.32-31.89c14.69-4.21,28.37,3.73,32.25,17.26l0.04,0.14
			c3.88,13.54-3.63,27.68-18.32,31.89C725.94,1038.08,712.26,1030.15,708.38,1016.62z M748.04,1005.26l-0.04-0.14
			c-2.34-8.16-10.27-13.25-18.71-10.83c-8.43,2.41-12.38,10.76-10.04,18.92l0.04,0.14c2.34,8.16,10.27,13.25,18.71,10.84
			C746.43,1021.77,750.37,1013.42,748.04,1005.26z"/>
		<path d="M760.77,980.17c-1.24-2.78-0.02-5.96,2.76-7.19l13.51-6.01c10.8-4.8,20.17-1.31,24.29,7.94l0.06,0.13
			c4.66,10.47-1.07,19.53-11.22,24.05l-7.56,3.37l4,8.99c1.24,2.78,0.02,5.96-2.76,7.19c-2.78,1.24-5.96,0.02-7.19-2.76
			L760.77,980.17z M786.55,990.08c4.98-2.21,6.56-6.48,4.84-10.36l-0.06-0.13c-1.98-4.46-6.15-5.47-11.13-3.26l-7.69,3.42
			l6.16,13.84L786.55,990.08z"/>
		<path d="M813.38,981.18l-12.15-19.86c-1.59-2.6-0.79-5.9,1.8-7.49c2.59-1.59,5.9-0.79,7.49,1.8l12,19.62
			c4.21,6.88,9.83,8.34,15.5,4.86c5.67-3.47,7.01-9.02,2.91-15.71l-12.18-19.92c-1.59-2.6-0.79-5.9,1.8-7.49
			c2.6-1.59,5.9-0.79,7.49,1.8l11.96,19.55c7.83,12.8,4.49,23.47-6.86,30.41C831.81,995.7,820.99,993.61,813.38,981.18z"/>
		<path d="M845.51,933.12c-1.9-2.38-1.52-5.76,0.85-7.66s5.76-1.52,7.66,0.85l21.6,27.03l15.75-12.59c2.16-1.72,5.24-1.38,6.96,0.78
			c1.72,2.16,1.38,5.24-0.78,6.96l-20.01,15.99c-2.38,1.9-5.76,1.52-7.66-0.85L845.51,933.12z"/>
		<path d="M903.13,934.73l-15.94-39.55c-1.09-2.74-0.73-5.44,1.34-7.58l0.44-0.46c2.07-2.13,4.72-2.52,7.48-1.51l40,14.78
			c0.8,0.29,1.46,0.63,1.97,1.12c2.08,2.02,2.18,5.27,0.16,7.35c-1.77,1.83-4.02,2.01-6.34,1.14l-7.9-3.04l-15.18,15.64l3.42,8.16
			c0.88,2.14,0.51,4.35-1.06,5.97c-1.97,2.03-5.13,2.03-7.16,0.06C903.81,936.27,903.45,935.53,903.13,934.73z M914.63,903.18
			l-16.51-6.46l6.95,16.31L914.63,903.18z"/>
		<path d="M914.35,868.84c-2.45-1.81-2.96-5.17-1.15-7.62l10.21-13.84c3.74-5.07,8.06-7.95,12.61-8.63
			c3.86-0.58,7.87,0.53,11.63,3.3l0.11,0.08c6.26,4.62,7.83,10.61,6.25,16.92l11.9-0.63c1.71-0.06,3.04,0.05,4.41,1.05
			c2.45,1.8,2.53,5.03,0.98,7.14c-1.47,1.99-3.4,2.59-5.47,2.65l-17.12,0.56l-5.17,7l8.71,6.43c2.45,1.81,2.96,5.17,1.15,7.62
			c-1.81,2.45-5.17,2.96-7.62,1.15L914.35,868.84z M942.34,862.24c3.15-4.27,2.68-8.4-0.68-10.88l-0.11-0.08
			c-3.76-2.77-7.63-1.58-10.78,2.69l-6.43,8.71l11.45,8.44L942.34,862.24z"/>
	</g>
	<circle class="st0" cx="979.18" cy="811.57" r="14.15"/>
	<circle class="st0" cx="271.39" cy="811.57" r="14.15"/>
</g>
</svg>
